<?xml version="1.0" encoding="utf-8" standalone="no"?>
<!DOCTYPE svg PUBLIC "-//W3C//DTD SVG 1.1//EN"
  "http://www.w3.org/Graphics/SVG/1.1/DTD/svg11.dtd">
<svg xmlns:xlink="http://www.w3.org/1999/xlink" width="219.131719pt" height="200.279844pt" viewBox="0 0 219.131719 200.279844" xmlns="http://www.w3.org/2000/svg" version="1.1">
 <metadata>
  <rdf:RDF xmlns:dc="http://purl.org/dc/elements/1.1/" xmlns:cc="http://creativecommons.org/ns#" xmlns:rdf="http://www.w3.org/1999/02/22-rdf-syntax-ns#">
   <cc:Work>
    <dc:type rdf:resource="http://purl.org/dc/dcmitype/StillImage"/>
    <dc:date>2023-01-30T16:42:04.222517</dc:date>
    <dc:format>image/svg+xml</dc:format>
    <dc:creator>
     <cc:Agent>
      <dc:title>Matplotlib v3.6.3, https://matplotlib.org/</dc:title>
     </cc:Agent>
    </dc:creator>
   </cc:Work>
  </rdf:RDF>
 </metadata>
 <defs>
  <style type="text/css">*{stroke-linejoin: round; stroke-linecap: butt}</style>
 </defs>
 <g id="figure_1">
  <g id="patch_1">
   <path d="M 0 200.279844 
L 219.131719 200.279844 
L 219.131719 0 
L 0 0 
z
" style="fill: #ffffff"/>
  </g>
  <g id="axes_1">
   <g id="patch_2">
    <path d="M 44.531719 173.52 
L 211.931719 173.52 
L 211.931719 7.2 
L 44.531719 7.2 
z
" style="fill: #ffffff"/>
   </g>
   <g id="matplotlib.axis_1">
    <g id="xtick_1">
     <g id="text_1">
      <!-- −4 -->
      <g style="fill: #262626" transform="translate(56.960512 190.893594) scale(0.11 -0.11)">
       <defs>
        <path id="ArialMT-2212" d="M 3381 1997 
L 356 1997 
L 356 2522 
L 3381 2522 
L 3381 1997 
z
" transform="scale(0.015625)"/>
        <path id="ArialMT-34" d="M 2069 0 
L 2069 1097 
L 81 1097 
L 81 1613 
L 2172 4581 
L 2631 4581 
L 2631 1613 
L 3250 1613 
L 3250 1097 
L 2631 1097 
L 2631 0 
L 2069 0 
z
M 2069 1613 
L 2069 3678 
L 634 1613 
L 2069 1613 
z
" transform="scale(0.015625)"/>
       </defs>
       <use xlink:href="#ArialMT-2212"/>
       <use xlink:href="#ArialMT-34" x="58.398438"/>
      </g>
     </g>
    </g>
    <g id="xtick_2">
     <g id="text_2">
      <!-- −2 -->
      <g style="fill: #262626" transform="translate(107.567285 190.893594) scale(0.11 -0.11)">
       <defs>
        <path id="ArialMT-32" d="M 3222 541 
L 3222 0 
L 194 0 
Q 188 203 259 391 
Q 375 700 629 1000 
Q 884 1300 1366 1694 
Q 2113 2306 2375 2664 
Q 2638 3022 2638 3341 
Q 2638 3675 2398 3904 
Q 2159 4134 1775 4134 
Q 1369 4134 1125 3890 
Q 881 3647 878 3216 
L 300 3275 
Q 359 3922 746 4261 
Q 1134 4600 1788 4600 
Q 2447 4600 2831 4234 
Q 3216 3869 3216 3328 
Q 3216 3053 3103 2787 
Q 2991 2522 2730 2228 
Q 2469 1934 1863 1422 
Q 1356 997 1212 845 
Q 1069 694 975 541 
L 3222 541 
z
" transform="scale(0.015625)"/>
       </defs>
       <use xlink:href="#ArialMT-2212"/>
       <use xlink:href="#ArialMT-32" x="58.398438"/>
      </g>
     </g>
    </g>
    <g id="xtick_3">
     <g id="text_3">
      <!-- 0 -->
      <g style="fill: #262626" transform="translate(161.386401 190.893594) scale(0.11 -0.11)">
       <defs>
        <path id="ArialMT-30" d="M 266 2259 
Q 266 3072 433 3567 
Q 600 4063 929 4331 
Q 1259 4600 1759 4600 
Q 2128 4600 2406 4451 
Q 2684 4303 2865 4023 
Q 3047 3744 3150 3342 
Q 3253 2941 3253 2259 
Q 3253 1453 3087 958 
Q 2922 463 2592 192 
Q 2263 -78 1759 -78 
Q 1097 -78 719 397 
Q 266 969 266 2259 
z
M 844 2259 
Q 844 1131 1108 757 
Q 1372 384 1759 384 
Q 2147 384 2411 759 
Q 2675 1134 2675 2259 
Q 2675 3391 2411 3762 
Q 2147 4134 1753 4134 
Q 1366 4134 1134 3806 
Q 844 3388 844 2259 
z
" transform="scale(0.015625)"/>
       </defs>
       <use xlink:href="#ArialMT-30"/>
      </g>
     </g>
    </g>
   </g>
   <g id="matplotlib.axis_2">
    <g id="ytick_1">
     <g id="text_4">
      <!-- −15.0 -->
      <g style="fill: #262626" transform="translate(7.2 175.510097) scale(0.11 -0.11)">
       <defs>
        <path id="ArialMT-31" d="M 2384 0 
L 1822 0 
L 1822 3584 
Q 1619 3391 1289 3197 
Q 959 3003 697 2906 
L 697 3450 
Q 1169 3672 1522 3987 
Q 1875 4303 2022 4600 
L 2384 4600 
L 2384 0 
z
" transform="scale(0.015625)"/>
        <path id="ArialMT-35" d="M 266 1200 
L 856 1250 
Q 922 819 1161 601 
Q 1400 384 1738 384 
Q 2144 384 2425 690 
Q 2706 997 2706 1503 
Q 2706 1984 2436 2262 
Q 2166 2541 1728 2541 
Q 1456 2541 1237 2417 
Q 1019 2294 894 2097 
L 366 2166 
L 809 4519 
L 3088 4519 
L 3088 3981 
L 1259 3981 
L 1013 2750 
Q 1425 3038 1878 3038 
Q 2478 3038 2890 2622 
Q 3303 2206 3303 1553 
Q 3303 931 2941 478 
Q 2500 -78 1738 -78 
Q 1113 -78 717 272 
Q 322 622 266 1200 
z
" transform="scale(0.015625)"/>
        <path id="ArialMT-2e" d="M 581 0 
L 581 641 
L 1222 641 
L 1222 0 
L 581 0 
z
" transform="scale(0.015625)"/>
       </defs>
       <use xlink:href="#ArialMT-2212"/>
       <use xlink:href="#ArialMT-31" x="58.398438"/>
       <use xlink:href="#ArialMT-35" x="114.013672"/>
       <use xlink:href="#ArialMT-2e" x="169.628906"/>
       <use xlink:href="#ArialMT-30" x="197.412109"/>
      </g>
     </g>
    </g>
    <g id="ytick_2">
     <g id="text_5">
      <!-- −12.5 -->
      <g style="fill: #262626" transform="translate(7.2 150.811375) scale(0.11 -0.11)">
       <use xlink:href="#ArialMT-2212"/>
       <use xlink:href="#ArialMT-31" x="58.398438"/>
       <use xlink:href="#ArialMT-32" x="114.013672"/>
       <use xlink:href="#ArialMT-2e" x="169.628906"/>
       <use xlink:href="#ArialMT-35" x="197.412109"/>
      </g>
     </g>
    </g>
    <g id="ytick_3">
     <g id="text_6">
      <!-- −10.0 -->
      <g style="fill: #262626" transform="translate(7.2 126.112653) scale(0.11 -0.11)">
       <use xlink:href="#ArialMT-2212"/>
       <use xlink:href="#ArialMT-31" x="58.398438"/>
       <use xlink:href="#ArialMT-30" x="114.013672"/>
       <use xlink:href="#ArialMT-2e" x="169.628906"/>
       <use xlink:href="#ArialMT-30" x="197.412109"/>
      </g>
     </g>
    </g>
    <g id="ytick_4">
     <g id="text_7">
      <!-- −7.5 -->
      <g style="fill: #262626" transform="translate(13.317031 101.413931) scale(0.11 -0.11)">
       <defs>
        <path id="ArialMT-37" d="M 303 3981 
L 303 4522 
L 3269 4522 
L 3269 4084 
Q 2831 3619 2401 2847 
Q 1972 2075 1738 1259 
Q 1569 684 1522 0 
L 944 0 
Q 953 541 1156 1306 
Q 1359 2072 1739 2783 
Q 2119 3494 2547 3981 
L 303 3981 
z
" transform="scale(0.015625)"/>
       </defs>
       <use xlink:href="#ArialMT-2212"/>
       <use xlink:href="#ArialMT-37" x="58.398438"/>
       <use xlink:href="#ArialMT-2e" x="114.013672"/>
       <use xlink:href="#ArialMT-35" x="141.796875"/>
      </g>
     </g>
    </g>
    <g id="ytick_5">
     <g id="text_8">
      <!-- −5.0 -->
      <g style="fill: #262626" transform="translate(13.317031 76.71521) scale(0.11 -0.11)">
       <use xlink:href="#ArialMT-2212"/>
       <use xlink:href="#ArialMT-35" x="58.398438"/>
       <use xlink:href="#ArialMT-2e" x="114.013672"/>
       <use xlink:href="#ArialMT-30" x="141.796875"/>
      </g>
     </g>
    </g>
    <g id="ytick_6">
     <g id="text_9">
      <!-- −2.5 -->
      <g style="fill: #262626" transform="translate(13.317031 52.016488) scale(0.11 -0.11)">
       <use xlink:href="#ArialMT-2212"/>
       <use xlink:href="#ArialMT-32" x="58.398438"/>
       <use xlink:href="#ArialMT-2e" x="114.013672"/>
       <use xlink:href="#ArialMT-35" x="141.796875"/>
      </g>
     </g>
    </g>
    <g id="ytick_7">
     <g id="text_10">
      <!-- 0.0 -->
      <g style="fill: #262626" transform="translate(19.741719 27.317766) scale(0.11 -0.11)">
       <use xlink:href="#ArialMT-30"/>
       <use xlink:href="#ArialMT-2e" x="55.615234"/>
       <use xlink:href="#ArialMT-30" x="83.398438"/>
      </g>
     </g>
    </g>
   </g>
   <g id="PathCollection_1">
    <defs>
     <path id="mb0f43bc518" d="M 0 1.5 
C 0.397805 1.5 0.77937 1.341951 1.06066 1.06066 
C 1.341951 0.77937 1.5 0.397805 1.5 0 
C 1.5 -0.397805 1.341951 -0.77937 1.06066 -1.06066 
C 0.77937 -1.341951 0.397805 -1.5 0 -1.5 
C -0.397805 -1.5 -0.77937 -1.341951 -1.06066 -1.06066 
C -1.341951 -0.77937 -1.5 -0.397805 -1.5 0 
C -1.5 0.397805 -1.341951 0.77937 -1.06066 1.06066 
C -0.77937 1.341951 -0.397805 1.5 0 1.5 
z
" style="stroke: #ffffff; stroke-width: 0.48"/>
    </defs>
    <g clip-path="url(#pa99bb12dd9)">
     <use xlink:href="#mb0f43bc518" x="115.749138" y="98.059803" style="fill: #4c72b0; stroke: #ffffff; stroke-width: 0.48"/>
     <use xlink:href="#mb0f43bc518" x="178.339449" y="29.183476" style="fill: #4c72b0; stroke: #ffffff; stroke-width: 0.48"/>
     <use xlink:href="#mb0f43bc518" x="97.666821" y="111.482653" style="fill: #4c72b0; stroke: #ffffff; stroke-width: 0.48"/>
     <use xlink:href="#mb0f43bc518" x="119.241727" y="96.80013" style="fill: #4c72b0; stroke: #ffffff; stroke-width: 0.48"/>
     <use xlink:href="#mb0f43bc518" x="147.665665" y="50.404516" style="fill: #4c72b0; stroke: #ffffff; stroke-width: 0.48"/>
     <use xlink:href="#mb0f43bc518" x="178.275304" y="36.367098" style="fill: #4c72b0; stroke: #ffffff; stroke-width: 0.48"/>
     <use xlink:href="#mb0f43bc518" x="101.796108" y="133.94929" style="fill: #4c72b0; stroke: #ffffff; stroke-width: 0.48"/>
     <use xlink:href="#mb0f43bc518" x="106.761914" y="100.932194" style="fill: #4c72b0; stroke: #ffffff; stroke-width: 0.48"/>
     <use xlink:href="#mb0f43bc518" x="92.743111" y="127.01637" style="fill: #4c72b0; stroke: #ffffff; stroke-width: 0.48"/>
     <use xlink:href="#mb0f43bc518" x="133.319501" y="78.419159" style="fill: #4c72b0; stroke: #ffffff; stroke-width: 0.48"/>
     <use xlink:href="#mb0f43bc518" x="132.455427" y="84.741121" style="fill: #4c72b0; stroke: #ffffff; stroke-width: 0.48"/>
     <use xlink:href="#mb0f43bc518" x="99.040712" y="129.536404" style="fill: #4c72b0; stroke: #ffffff; stroke-width: 0.48"/>
     <use xlink:href="#mb0f43bc518" x="101.253403" y="109.330955" style="fill: #4c72b0; stroke: #ffffff; stroke-width: 0.48"/>
     <use xlink:href="#mb0f43bc518" x="142.557236" y="58.963095" style="fill: #4c72b0; stroke: #ffffff; stroke-width: 0.48"/>
     <use xlink:href="#mb0f43bc518" x="110.947149" y="100.829299" style="fill: #4c72b0; stroke: #ffffff; stroke-width: 0.48"/>
     <use xlink:href="#mb0f43bc518" x="137.759079" y="65.910065" style="fill: #4c72b0; stroke: #ffffff; stroke-width: 0.48"/>
     <use xlink:href="#mb0f43bc518" x="139.618561" y="77.707303" style="fill: #4c72b0; stroke: #ffffff; stroke-width: 0.48"/>
     <use xlink:href="#mb0f43bc518" x="94.283127" y="104.069164" style="fill: #4c72b0; stroke: #ffffff; stroke-width: 0.48"/>
     <use xlink:href="#mb0f43bc518" x="148.822697" y="46.797914" style="fill: #4c72b0; stroke: #ffffff; stroke-width: 0.48"/>
     <use xlink:href="#mb0f43bc518" x="123.507883" y="98.919506" style="fill: #4c72b0; stroke: #ffffff; stroke-width: 0.48"/>
     <use xlink:href="#mb0f43bc518" x="124.812834" y="91.968548" style="fill: #4c72b0; stroke: #ffffff; stroke-width: 0.48"/>
     <use xlink:href="#mb0f43bc518" x="166.136086" y="48.767509" style="fill: #4c72b0; stroke: #ffffff; stroke-width: 0.48"/>
     <use xlink:href="#mb0f43bc518" x="130.560078" y="72.345574" style="fill: #4c72b0; stroke: #ffffff; stroke-width: 0.48"/>
     <use xlink:href="#mb0f43bc518" x="89.107765" y="121.754117" style="fill: #4c72b0; stroke: #ffffff; stroke-width: 0.48"/>
     <use xlink:href="#mb0f43bc518" x="79.416414" y="132.021427" style="fill: #4c72b0; stroke: #ffffff; stroke-width: 0.48"/>
     <use xlink:href="#mb0f43bc518" x="111.160735" y="95.616312" style="fill: #4c72b0; stroke: #ffffff; stroke-width: 0.48"/>
     <use xlink:href="#mb0f43bc518" x="155.511551" y="48.730707" style="fill: #4c72b0; stroke: #ffffff; stroke-width: 0.48"/>
     <use xlink:href="#mb0f43bc518" x="136.98004" y="83.976277" style="fill: #4c72b0; stroke: #ffffff; stroke-width: 0.48"/>
     <use xlink:href="#mb0f43bc518" x="128.776247" y="77.572491" style="fill: #4c72b0; stroke: #ffffff; stroke-width: 0.48"/>
     <use xlink:href="#mb0f43bc518" x="120.074069" y="109.233336" style="fill: #4c72b0; stroke: #ffffff; stroke-width: 0.48"/>
     <use xlink:href="#mb0f43bc518" x="117.981949" y="98.726712" style="fill: #4c72b0; stroke: #ffffff; stroke-width: 0.48"/>
     <use xlink:href="#mb0f43bc518" x="163.575646" y="63.84249" style="fill: #4c72b0; stroke: #ffffff; stroke-width: 0.48"/>
     <use xlink:href="#mb0f43bc518" x="146.072438" y="70.963427" style="fill: #4c72b0; stroke: #ffffff; stroke-width: 0.48"/>
     <use xlink:href="#mb0f43bc518" x="110.910591" y="102.368917" style="fill: #4c72b0; stroke: #ffffff; stroke-width: 0.48"/>
     <use xlink:href="#mb0f43bc518" x="143.270109" y="43.93058" style="fill: #4c72b0; stroke: #ffffff; stroke-width: 0.48"/>
     <use xlink:href="#mb0f43bc518" x="141.043269" y="71.157813" style="fill: #4c72b0; stroke: #ffffff; stroke-width: 0.48"/>
     <use xlink:href="#mb0f43bc518" x="130.281454" y="94.727383" style="fill: #4c72b0; stroke: #ffffff; stroke-width: 0.48"/>
     <use xlink:href="#mb0f43bc518" x="130.006621" y="77.866635" style="fill: #4c72b0; stroke: #ffffff; stroke-width: 0.48"/>
     <use xlink:href="#mb0f43bc518" x="128.785869" y="80.767306" style="fill: #4c72b0; stroke: #ffffff; stroke-width: 0.48"/>
     <use xlink:href="#mb0f43bc518" x="118.662968" y="107.948087" style="fill: #4c72b0; stroke: #ffffff; stroke-width: 0.48"/>
     <use xlink:href="#mb0f43bc518" x="52.14081" y="165.96" style="fill: #4c72b0; stroke: #ffffff; stroke-width: 0.48"/>
     <use xlink:href="#mb0f43bc518" x="129.528193" y="60.011119" style="fill: #4c72b0; stroke: #ffffff; stroke-width: 0.48"/>
     <use xlink:href="#mb0f43bc518" x="155.093607" y="54.363198" style="fill: #4c72b0; stroke: #ffffff; stroke-width: 0.48"/>
     <use xlink:href="#mb0f43bc518" x="155.579496" y="44.059117" style="fill: #4c72b0; stroke: #ffffff; stroke-width: 0.48"/>
     <use xlink:href="#mb0f43bc518" x="117.422465" y="101.632127" style="fill: #4c72b0; stroke: #ffffff; stroke-width: 0.48"/>
     <use xlink:href="#mb0f43bc518" x="131.493204" y="76.45895" style="fill: #4c72b0; stroke: #ffffff; stroke-width: 0.48"/>
     <use xlink:href="#mb0f43bc518" x="117.91088" y="73.53595" style="fill: #4c72b0; stroke: #ffffff; stroke-width: 0.48"/>
     <use xlink:href="#mb0f43bc518" x="124.245604" y="89.87985" style="fill: #4c72b0; stroke: #ffffff; stroke-width: 0.48"/>
     <use xlink:href="#mb0f43bc518" x="109.699289" y="102.842085" style="fill: #4c72b0; stroke: #ffffff; stroke-width: 0.48"/>
     <use xlink:href="#mb0f43bc518" x="151.445809" y="76.64529" style="fill: #4c72b0; stroke: #ffffff; stroke-width: 0.48"/>
     <use xlink:href="#mb0f43bc518" x="141.151885" y="66.702868" style="fill: #4c72b0; stroke: #ffffff; stroke-width: 0.48"/>
     <use xlink:href="#mb0f43bc518" x="141.452605" y="47.095394" style="fill: #4c72b0; stroke: #ffffff; stroke-width: 0.48"/>
     <use xlink:href="#mb0f43bc518" x="166.653599" y="55.50202" style="fill: #4c72b0; stroke: #ffffff; stroke-width: 0.48"/>
     <use xlink:href="#mb0f43bc518" x="137.563188" y="70.885179" style="fill: #4c72b0; stroke: #ffffff; stroke-width: 0.48"/>
     <use xlink:href="#mb0f43bc518" x="126.541035" y="90.913126" style="fill: #4c72b0; stroke: #ffffff; stroke-width: 0.48"/>
     <use xlink:href="#mb0f43bc518" x="115.923851" y="102.541746" style="fill: #4c72b0; stroke: #ffffff; stroke-width: 0.48"/>
     <use xlink:href="#mb0f43bc518" x="144.089755" y="64.648574" style="fill: #4c72b0; stroke: #ffffff; stroke-width: 0.48"/>
     <use xlink:href="#mb0f43bc518" x="132.218805" y="97.855015" style="fill: #4c72b0; stroke: #ffffff; stroke-width: 0.48"/>
     <use xlink:href="#mb0f43bc518" x="136.676849" y="68.408236" style="fill: #4c72b0; stroke: #ffffff; stroke-width: 0.48"/>
     <use xlink:href="#mb0f43bc518" x="125.943151" y="86.127146" style="fill: #4c72b0; stroke: #ffffff; stroke-width: 0.48"/>
     <use xlink:href="#mb0f43bc518" x="134.688723" y="64.032142" style="fill: #4c72b0; stroke: #ffffff; stroke-width: 0.48"/>
     <use xlink:href="#mb0f43bc518" x="120.470683" y="92.739813" style="fill: #4c72b0; stroke: #ffffff; stroke-width: 0.48"/>
     <use xlink:href="#mb0f43bc518" x="129.39091" y="81.624182" style="fill: #4c72b0; stroke: #ffffff; stroke-width: 0.48"/>
     <use xlink:href="#mb0f43bc518" x="146.455166" y="80.983023" style="fill: #4c72b0; stroke: #ffffff; stroke-width: 0.48"/>
     <use xlink:href="#mb0f43bc518" x="177.535421" y="46.075869" style="fill: #4c72b0; stroke: #ffffff; stroke-width: 0.48"/>
     <use xlink:href="#mb0f43bc518" x="136.521104" y="80.573452" style="fill: #4c72b0; stroke: #ffffff; stroke-width: 0.48"/>
     <use xlink:href="#mb0f43bc518" x="122.53787" y="94.745364" style="fill: #4c72b0; stroke: #ffffff; stroke-width: 0.48"/>
     <use xlink:href="#mb0f43bc518" x="139.570707" y="91.935609" style="fill: #4c72b0; stroke: #ffffff; stroke-width: 0.48"/>
     <use xlink:href="#mb0f43bc518" x="146.715813" y="89.157003" style="fill: #4c72b0; stroke: #ffffff; stroke-width: 0.48"/>
     <use xlink:href="#mb0f43bc518" x="129.124077" y="87.30068" style="fill: #4c72b0; stroke: #ffffff; stroke-width: 0.48"/>
     <use xlink:href="#mb0f43bc518" x="142.794011" y="83.264256" style="fill: #4c72b0; stroke: #ffffff; stroke-width: 0.48"/>
     <use xlink:href="#mb0f43bc518" x="128.787821" y="82.46621" style="fill: #4c72b0; stroke: #ffffff; stroke-width: 0.48"/>
     <use xlink:href="#mb0f43bc518" x="163.057951" y="73.538042" style="fill: #4c72b0; stroke: #ffffff; stroke-width: 0.48"/>
     <use xlink:href="#mb0f43bc518" x="111.321696" y="113.704326" style="fill: #4c72b0; stroke: #ffffff; stroke-width: 0.48"/>
     <use xlink:href="#mb0f43bc518" x="135.923151" y="73.426671" style="fill: #4c72b0; stroke: #ffffff; stroke-width: 0.48"/>
     <use xlink:href="#mb0f43bc518" x="117.459548" y="97.855882" style="fill: #4c72b0; stroke: #ffffff; stroke-width: 0.48"/>
     <use xlink:href="#mb0f43bc518" x="152.552212" y="57.493843" style="fill: #4c72b0; stroke: #ffffff; stroke-width: 0.48"/>
     <use xlink:href="#mb0f43bc518" x="106.006958" y="98.885654" style="fill: #4c72b0; stroke: #ffffff; stroke-width: 0.48"/>
     <use xlink:href="#mb0f43bc518" x="154.739426" y="62.243411" style="fill: #4c72b0; stroke: #ffffff; stroke-width: 0.48"/>
     <use xlink:href="#mb0f43bc518" x="142.919648" y="66.325134" style="fill: #4c72b0; stroke: #ffffff; stroke-width: 0.48"/>
     <use xlink:href="#mb0f43bc518" x="121.388356" y="94.776814" style="fill: #4c72b0; stroke: #ffffff; stroke-width: 0.48"/>
     <use xlink:href="#mb0f43bc518" x="133.744913" y="69.466541" style="fill: #4c72b0; stroke: #ffffff; stroke-width: 0.48"/>
     <use xlink:href="#mb0f43bc518" x="130.502432" y="87.42606" style="fill: #4c72b0; stroke: #ffffff; stroke-width: 0.48"/>
     <use xlink:href="#mb0f43bc518" x="157.080971" y="67.753848" style="fill: #4c72b0; stroke: #ffffff; stroke-width: 0.48"/>
     <use xlink:href="#mb0f43bc518" x="101.800198" y="99.426574" style="fill: #4c72b0; stroke: #ffffff; stroke-width: 0.48"/>
     <use xlink:href="#mb0f43bc518" x="148.075218" y="52.104087" style="fill: #4c72b0; stroke: #ffffff; stroke-width: 0.48"/>
     <use xlink:href="#mb0f43bc518" x="113.333169" y="88.917317" style="fill: #4c72b0; stroke: #ffffff; stroke-width: 0.48"/>
     <use xlink:href="#mb0f43bc518" x="118.449419" y="85.175429" style="fill: #4c72b0; stroke: #ffffff; stroke-width: 0.48"/>
     <use xlink:href="#mb0f43bc518" x="204.322628" y="14.76" style="fill: #4c72b0; stroke: #ffffff; stroke-width: 0.48"/>
     <use xlink:href="#mb0f43bc518" x="147.222066" y="72.450397" style="fill: #4c72b0; stroke: #ffffff; stroke-width: 0.48"/>
     <use xlink:href="#mb0f43bc518" x="133.442543" y="65.228081" style="fill: #4c72b0; stroke: #ffffff; stroke-width: 0.48"/>
     <use xlink:href="#mb0f43bc518" x="176.339606" y="44.471331" style="fill: #4c72b0; stroke: #ffffff; stroke-width: 0.48"/>
     <use xlink:href="#mb0f43bc518" x="112.207473" y="108.520095" style="fill: #4c72b0; stroke: #ffffff; stroke-width: 0.48"/>
     <use xlink:href="#mb0f43bc518" x="134.519295" y="78.681962" style="fill: #4c72b0; stroke: #ffffff; stroke-width: 0.48"/>
     <use xlink:href="#mb0f43bc518" x="113.411879" y="100.762371" style="fill: #4c72b0; stroke: #ffffff; stroke-width: 0.48"/>
     <use xlink:href="#mb0f43bc518" x="174.771644" y="20.066673" style="fill: #4c72b0; stroke: #ffffff; stroke-width: 0.48"/>
     <use xlink:href="#mb0f43bc518" x="141.815369" y="69.812746" style="fill: #4c72b0; stroke: #ffffff; stroke-width: 0.48"/>
     <use xlink:href="#mb0f43bc518" x="153.727097" y="73.162168" style="fill: #4c72b0; stroke: #ffffff; stroke-width: 0.48"/>
     <use xlink:href="#mb0f43bc518" x="131.231459" y="82.209183" style="fill: #4c72b0; stroke: #ffffff; stroke-width: 0.48"/>
     <use xlink:href="#mb0f43bc518" x="153.423562" y="46.665839" style="fill: #4c72b0; stroke: #ffffff; stroke-width: 0.48"/>
    </g>
   </g>
   <g id="patch_3">
    <path d="M 44.531719 173.52 
L 44.531719 7.2 
" style="fill: none; stroke: #262626; stroke-width: 1.25; stroke-linejoin: miter; stroke-linecap: square"/>
   </g>
   <g id="patch_4">
    <path d="M 211.931719 173.52 
L 211.931719 7.2 
" style="fill: none; stroke: #262626; stroke-width: 1.25; stroke-linejoin: miter; stroke-linecap: square"/>
   </g>
   <g id="patch_5">
    <path d="M 44.531719 173.52 
L 211.931719 173.52 
" style="fill: none; stroke: #262626; stroke-width: 1.25; stroke-linejoin: miter; stroke-linecap: square"/>
   </g>
   <g id="patch_6">
    <path d="M 44.531719 7.2 
L 211.931719 7.2 
" style="fill: none; stroke: #262626; stroke-width: 1.25; stroke-linejoin: miter; stroke-linecap: square"/>
   </g>
  </g>
 </g>
 <defs>
  <clipPath id="pa99bb12dd9">
   <rect x="44.531719" y="7.2" width="167.4" height="166.32"/>
  </clipPath>
 </defs>
</svg>
