# Blender v2.93.6 OBJ File: ''
# www.blender.org
mtllib table.mtl
o StandardIslandHeight2_Mesh.066
v -0.300000 0.000000 -1.000000
v -0.300000 -0.000000 0.990000
v 0.600000 -0.000000 0.990000
v 0.600000 0.000000 -1.000000
v -0.310800 0.000000 -1.010800
v 0.610800 0.000000 -1.010800
v -0.310800 -0.000000 1.000800
v 0.610800 -0.000000 1.000800
v -0.302013 0.039055 -1.002013
v -0.304941 0.037680 -1.004941
v 0.604941 0.037680 -1.004941
v 0.602013 0.039055 -1.002013
v -0.297000 0.040000 -1.000000
v 0.597000 0.040000 -1.000000
v 0.604941 0.037680 0.994941
v 0.600000 0.040000 -0.997000
v 0.600000 0.040000 0.987000
v 0.602013 0.039055 0.992013
v -0.304941 0.037680 0.994941
v -0.302013 0.039055 0.992013
v 0.597000 0.040000 0.990000
v -0.297000 0.040000 0.990000
v -0.300000 0.040000 -0.997000
v -0.300000 0.040000 0.987000
v 0.610800 0.012000 -1.010800
v -0.310800 0.012000 -1.010800
v 0.610800 0.012000 1.000800
v -0.310800 0.012000 1.000800
v -0.300000 1.100000 -1.000000
v 0.600000 1.100000 -1.000000
v 0.600000 1.100000 0.990000
v -0.300000 1.100000 0.990000
v -0.320000 1.100000 -1.020000
v -0.320000 1.100000 1.010000
v 0.620000 1.100000 -1.020000
v 0.620000 1.100000 1.010000
v -0.500000 1.100000 1.010000
v -0.500000 1.100000 -1.020000
v -0.502000 1.062000 -1.022000
v -0.502000 1.098000 -1.022000
v -0.502000 1.098000 1.012000
v -0.502000 1.062000 1.012000
v -0.320000 1.098000 1.012000
v -0.320000 1.062000 1.012000
v 0.622000 1.098000 1.012000
v 0.622000 1.062000 1.012000
v -0.320000 1.062000 -1.022000
v -0.320000 1.098000 -1.022000
v 0.622000 1.062000 -1.022000
v 0.622000 1.098000 -1.022000
v 0.620000 1.060000 1.010000
v 0.620000 1.060000 -1.020000
v 0.602121 1.060000 -1.002121
v 0.600000 1.060000 -0.997000
v 0.600000 1.060000 0.987000
v 0.602121 1.060000 0.992121
v -0.302121 1.060000 0.992121
v -0.297000 1.060000 0.990000
v 0.597000 1.060000 0.990000
v -0.320000 1.060000 1.010000
v -0.300000 1.060000 0.987000
v -0.300000 1.060000 -0.997000
v -0.302121 1.060000 -1.002121
v -0.320000 1.060000 -1.020000
v 0.597000 1.060000 -1.000000
v -0.297000 1.060000 -1.000000
v -0.500000 1.060000 -1.020000
v -0.500000 1.060000 1.010000
vt 2.390208 0.921694
vt 3.198027 2.901835
vt 2.390208 2.901835
vt 3.198027 0.921694
vt 2.380515 0.910948
vt 3.207721 0.910948
vt 2.380515 2.912581
vt 3.207721 2.912581
vt 4.087412 0.913878
vt 3.262868 0.910948
vt 4.090074 0.910948
vt 3.265529 0.913878
vt 4.082854 0.915893
vt 3.270087 0.915893
vt 3.262868 2.912581
vt 3.267360 0.918896
vt 3.267360 2.904634
vt 3.265529 2.909651
vt 4.090074 2.912581
vt 4.087412 2.909651
vt 3.270087 2.907636
vt 4.082854 2.907636
vt 4.085582 0.918896
vt 4.085582 2.904634
vt 4.145221 3.337860
vt 4.972426 3.259804
vt 4.972426 3.337860
vt 4.145221 3.259804
vt 4.967168 3.504902
vt 4.150479 3.504902
vt 2.381536 0.690802
vt 4.383170 0.612745
vt 4.383170 0.690802
vt 2.381536 0.612745
vt 4.377340 0.857843
vt 2.387366 0.857843
vt 4.145221 0.102566
vt 4.972426 0.024510
vt 4.972426 0.102566
vt 4.145221 0.024510
vt 4.967168 0.269608
vt 4.150479 0.269608
vt 2.381536 0.396684
vt 4.383170 0.318628
vt 4.383170 0.396684
vt 2.381536 0.318628
vt 4.377340 0.563725
vt 2.387366 0.563725
vt 2.124850 0.342433
vt 1.224490 2.304626
vt 1.224490 0.342433
vt 2.124850 2.304626
vt 2.144858 0.322712
vt 2.144858 2.324347
vt 1.204482 0.322712
vt 1.204482 2.324347
vt 2.324930 2.324347
vt 2.324930 0.322712
vt 0.028595 0.029671
vt 2.030229 0.264446
vt 0.028595 0.264446
vt 2.030229 0.029671
vt 0.028011 3.853201
vt 0.208083 4.087976
vt 0.028011 4.087976
vt 0.208083 3.853201
vt 1.148459 4.087976
vt 1.148459 3.853201
vt 1.148459 3.793858
vt 0.968387 3.559083
vt 1.148459 3.559083
vt 0.968387 3.793858
vt 0.028011 3.559083
vt 0.028011 3.793858
vt 1.148459 2.324347
vt 1.130574 0.340341
vt 1.148459 0.322712
vt 1.128451 0.345391
vt 1.128451 2.301668
vt 1.130574 2.306718
vt 0.225969 2.306718
vt 0.231092 2.304626
vt 1.125450 2.304626
vt 0.208083 2.324347
vt 0.228091 2.301668
vt 0.228091 0.345391
vt 0.225969 0.340341
vt 0.208083 0.322712
vt 1.125450 0.342433
vt 0.231092 0.342433
vt 0.028011 0.322712
vt 0.028011 2.324347
vt 2.087418 0.029671
vt 4.089052 0.264446
vt 2.087418 0.264446
vt 4.089052 0.029671
vt 0.208083 3.848039
vt 1.148459 3.848039
vt 0.028011 3.848039
vt 2.087418 0.024510
vt 4.089052 0.024510
vt 0.028011 3.553922
vt 0.968387 3.553922
vt 1.148459 3.553922
vt 0.028595 0.024510
vt 2.030229 0.024510
vt 1.148459 4.093137
vt 0.208083 4.093137
vt 0.028011 4.093137
vt 2.030229 0.269608
vt 0.028595 0.269608
vt 1.148459 3.799020
vt 0.968387 3.799020
vt 0.028011 3.799020
vt 4.089052 0.269608
vt 2.087418 0.269608
vt 2.027211 3.501401
vt 0.031612 2.380952
vt 2.027211 2.380952
vt 0.031612 3.501401
vt 4.969669 3.207283
vt 4.147978 2.086835
vt 4.969669 2.086835
vt 4.147978 3.207283
vt 4.086035 4.089636
vt 2.090436 2.969188
vt 4.086035 2.969188
vt 2.090436 4.089636
vt 4.969669 2.030812
vt 4.147978 0.910364
vt 4.969669 0.910364
vt 4.147978 2.030812
vt 4.971967 2.030812
vt 4.971967 0.910364
vt 4.972886 2.030812
vt 4.144761 2.030812
vt 4.145680 0.910364
vt 4.145680 2.030812
vt 4.144761 0.910364
vt 2.086915 4.089636
vt 2.087921 2.969188
vt 2.087921 4.089636
vt 4.144761 3.207283
vt 4.145680 3.207283
vt 4.972868 2.030736
vt 4.971984 2.030370
vt 4.972351 2.031255
vt 4.145145 2.030370
vt 4.144779 2.031255
vt 4.145663 2.030888
vt 2.086976 4.089712
vt 2.087861 4.090078
vt 2.087494 4.089194
vt 4.145297 3.207725
vt 4.145663 3.206841
vt 4.144779 3.207207
vt 4.145135 0.909931
vt 4.145654 0.910449
vt 4.144788 0.910797
vt 4.972341 0.910797
vt 4.971993 0.909931
vt 4.972859 0.910279
vt 2.086985 2.969273
vt 2.087504 2.968755
vt 2.087851 2.969621
vt 4.085149 2.907551
vt 4.086015 2.907203
vt 4.085667 2.908069
vn 0.0000 -1.0000 -0.0000
vn 0.0000 0.9052 -0.4250
vn 0.0000 0.9052 -0.4251
vn 0.4250 0.9052 0.0000
vn 0.0000 0.9052 0.4250
vn -0.4250 0.9052 0.0000
vn 0.0000 0.0000 -1.0000
vn 0.0000 0.2224 -0.9749
vn 1.0000 0.0000 0.0000
vn 0.9749 0.2224 0.0000
vn 0.0000 0.0000 1.0000
vn 0.0000 0.2224 0.9749
vn -1.0000 0.0000 0.0000
vn -0.9749 0.2224 0.0000
vn 0.0000 1.0000 0.0000
vn 0.0000 -1.0000 0.0001
vn 0.0000 -1.0000 -0.0001
vn 0.0000 -0.7070 0.7072
vn 0.0000 -0.7071 0.7072
vn 0.7071 -0.7071 0.0000
vn 0.0000 -0.7071 -0.7072
vn 0.0000 -0.7070 -0.7072
vn 0.0000 -0.7071 -0.7071
vn -0.7071 -0.7071 0.0000
vn 0.0000 0.7070 0.7072
vn -0.0000 0.7071 0.7071
vn -0.7071 0.7071 0.0000
vn 0.0000 0.7070 -0.7072
vn 0.0000 0.7071 -0.7071
vn 0.7071 0.7071 0.0000
vn -0.7071 0.0000 -0.7071
vn 0.7071 0.0000 -0.7071
vn 0.7071 -0.0000 0.7071
vn -0.7071 -0.0000 0.7071
vn 0.1322 0.9824 -0.1322
vn -0.1322 0.9824 -0.1322
vn 0.1322 0.9824 0.1322
vn -0.1322 0.9824 0.1322
usemtl BaseboardMat
s off
f 1/1/1 3/2/1 2/3/1
f 1/1/1 4/4/1 3/2/1
f 4/4/1 1/1/1 5/5/1
f 4/4/1 5/5/1 6/6/1
f 3/2/1 4/4/1 6/6/1
f 1/1/1 7/7/1 5/5/1
f 1/1/1 2/3/1 7/7/1
f 2/3/1 8/8/1 7/7/1
f 2/3/1 3/2/1 8/8/1
f 3/2/1 6/6/1 8/8/1
f 9/9/2 11/10/2 10/11/2
f 11/10/2 9/9/2 12/12/2
f 12/12/3 9/9/3 13/13/3
f 12/12/3 13/13/3 14/14/3
f 12/12/4 15/15/4 11/10/4
f 15/15/4 12/12/4 16/16/4
f 15/15/4 16/16/4 17/17/4
f 15/15/4 17/17/4 18/18/4
f 18/18/5 19/19/5 15/15/5
f 19/19/6 9/9/6 10/11/6
f 18/18/5 20/20/5 19/19/5
f 21/21/5 20/20/5 18/18/5
f 20/20/5 21/21/5 22/22/5
f 9/9/6 19/19/6 23/23/6
f 23/23/6 19/19/6 24/24/6
f 24/24/6 19/19/6 20/20/6
f 25/25/7 5/26/7 26/27/7
f 25/25/7 6/28/7 5/26/7
f 25/25/8 26/27/8 10/29/8
f 25/25/8 10/29/8 11/30/8
f 27/31/9 6/32/9 25/33/9
f 27/31/9 8/34/9 6/32/9
f 27/31/10 25/33/10 11/35/10
f 27/31/10 11/35/10 15/36/10
f 28/37/11 8/38/11 27/39/11
f 28/37/11 7/40/11 8/38/11
f 28/37/12 27/39/12 15/41/12
f 28/37/12 15/41/12 19/42/12
f 26/43/13 7/44/13 28/45/13
f 26/43/13 5/46/13 7/44/13
f 26/43/14 28/45/14 19/47/14
f 26/43/14 19/47/14 10/48/14
usemtl CountertopMat
f 29/49/15 31/50/15 30/51/15
f 29/49/15 32/52/15 31/50/15
f 32/52/15 29/49/15 33/53/15
f 32/52/15 33/53/15 34/54/15
f 31/50/15 32/52/15 34/54/15
f 29/49/15 35/55/15 33/53/15
f 29/49/15 30/51/15 35/55/15
f 30/51/15 36/56/15 35/55/15
f 30/51/15 31/50/15 36/56/15
f 31/50/15 34/54/15 36/56/15
f 37/57/15 34/54/15 33/53/15
f 37/57/15 33/53/15 38/58/15
f 39/59/13 41/60/13 40/61/13
f 39/59/13 42/62/13 41/60/13
f 42/63/11 43/64/11 41/65/11
f 42/63/11 44/66/11 43/64/11
f 44/66/11 45/67/11 43/64/11
f 44/66/11 46/68/11 45/67/11
f 40/69/7 47/70/7 39/71/7
f 40/69/7 48/72/7 47/70/7
f 49/73/7 47/70/7 48/72/7
f 49/73/7 48/72/7 50/74/7
f 51/75/1 53/76/1 52/77/1
f 53/76/1 51/75/1 54/78/1
f 54/78/1 51/75/1 55/79/1
f 55/79/1 51/75/1 56/80/1
f 57/81/1 56/80/1 51/75/1
f 58/82/16 56/80/16 57/81/16
f 56/80/17 58/82/17 59/83/17
f 57/81/1 51/75/1 60/84/1
f 60/84/1 61/85/1 57/81/1
f 60/84/1 62/86/1 61/85/1
f 60/84/1 63/87/1 62/86/1
f 63/87/1 60/84/1 64/88/1
f 53/76/1 64/88/1 52/77/1
f 64/88/1 53/76/1 63/87/1
f 63/87/17 53/76/17 65/89/17
f 63/87/16 65/89/16 66/90/16
f 67/91/1 64/88/1 60/84/1
f 67/91/1 60/84/1 68/92/1
f 46/93/9 50/94/9 45/95/9
f 46/93/9 49/96/9 50/94/9
f 60/97/18 46/68/18 44/66/18
f 60/97/18 51/98/18 46/68/18
f 68/99/18 60/97/18 44/66/18
f 68/99/19 44/66/19 42/63/19
f 51/100/20 49/96/20 46/93/20
f 51/100/20 52/101/20 49/96/20
f 52/102/21 47/70/21 49/73/21
f 52/102/22 64/103/22 47/70/22
f 64/103/23 39/71/23 47/70/23
f 64/103/22 67/104/22 39/71/22
f 67/105/24 42/62/24 39/59/24
f 67/105/24 68/106/24 42/62/24
f 36/107/25 43/64/25 45/67/25
f 36/107/26 34/108/26 43/64/26
f 34/108/26 41/65/26 43/64/26
f 34/108/25 37/109/25 41/65/25
f 37/110/27 40/61/27 41/60/27
f 37/110/27 38/111/27 40/61/27
f 38/112/28 48/72/28 40/69/28
f 38/112/29 33/113/29 48/72/29
f 33/113/29 50/74/29 48/72/29
f 33/113/28 35/114/28 50/74/28
f 35/115/30 45/95/30 50/94/30
f 35/115/30 36/116/30 45/95/30
usemtl IslandMat
f 61/117/13 23/118/13 24/119/13
f 61/117/13 62/120/13 23/118/13
f 59/121/11 22/122/11 21/123/11
f 59/121/11 58/124/11 22/122/11
f 54/125/9 17/126/9 16/127/9
f 54/125/9 55/128/9 17/126/9
f 66/129/7 14/130/7 13/131/7
f 66/129/7 65/132/7 14/130/7
f 23/118/31 66/133/31 13/134/31
f 23/118/31 62/135/31 66/133/31
f 54/136/32 14/137/32 65/138/32
f 54/136/32 16/139/32 14/137/32
f 59/140/33 17/141/33 55/142/33
f 59/140/33 21/123/33 17/141/33
f 61/143/34 22/122/34 58/144/34
f 61/143/34 24/119/34 22/122/34
f 62/145/1 63/146/1 66/147/1
f 65/148/1 53/149/1 54/150/1
f 55/151/1 56/152/1 59/153/1
f 58/154/1 57/155/1 61/156/1
f 14/157/35 16/158/35 12/159/35
f 13/160/36 9/161/36 23/162/36
f 17/163/37 21/164/37 18/165/37
f 24/166/38 20/167/38 22/168/38
