# https://github.com/mikedh/trimesh
v -2.50000000 -0.05000000 -1.50000000
v -2.50000000 -0.05000000 1.50000000
v -2.50000000 0.05000000 -1.50000000
v -2.50000000 0.05000000 1.50000000
v 2.50000000 -0.05000000 -1.50000000
v 2.50000000 -0.05000000 1.50000000
v 2.50000000 0.05000000 -1.50000000
v 2.50000000 0.05000000 1.50000000
vn -0.57735027 -0.57735027 -0.57735027
vn -0.57735027 -0.57735027 0.57735027
vn -0.57735027 0.57735027 -0.57735027
vn -0.57735027 0.57735027 0.57735027
vn 0.57735027 -0.57735027 -0.57735027
vn 0.57735027 -0.57735027 0.57735027
vn 0.57735027 0.57735027 -0.57735027
vn 0.57735027 0.57735027 0.57735027
f 2//2 4//4 1//1
f 5//5 2//2 1//1
f 1//1 4//4 3//3
f 3//3 5//5 1//1
f 2//2 8//8 4//4
f 6//6 2//2 5//5
f 6//6 8//8 2//2
f 4//4 8//8 3//3
f 7//7 5//5 3//3
f 3//3 8//8 7//7
f 7//7 6//6 5//5
f 8//8 6//6 7//7